<svg width="120" height="120" viewBox="0 0 120 120" fill="none" xmlns="http://www.w3.org/2000/svg">
  <defs>
    <linearGradient id="Gradient" x1="0" y1="0" x2="120" y2="120" gradientUnits="userSpaceOnUse">
      <stop stop-color="#4F46E5"/>
      <stop offset="0.5" stop-color="#8B5CF6"/>
      <stop offset="1" stop-color="#0EA5E9"/>
    </linearGradient>
    <filter id="glow" x="-20%" y="-20%" width="140%" height="140%">
      <feDropShadow dx="0" dy="0" stdDeviation="8" flood-color="#0EA5E9" flood-opacity="0.18"/>
    </filter>
  </defs>
  <g filter="url(#glow)">
    <circle cx="60" cy="60" r="52" fill="url(#Gradient)"/>
  </g>
  <path d="M42 40C42 35.5817 45.5817 32 50 32H70C74.4183 32 78 35.5817 78 40V44C78 48.4183 74.4183 52 70 52H56C53.7909 52 52 53.7909 52 56V68C52 69.1046 52.8954 70 54 70H70C74.4183 70 78 73.5817 78 78V84C78 88.4183 74.4183 92 70 92H50C45.5817 92 42 88.4183 42 84V40Z" fill="white" opacity="0.85"/>
  <path d="M48 45H72V49H48V45Z" fill="#0F172A"/>
  <path d="M48 66H72V70H48V66Z" fill="#0F172A"/>
</svg>
